#!OML:ASF F:\VICON\USERDATA\INSTALL\rory3\rory3.ASF
:FULLY-SPECIFIED
:DEGREES
375
root 3.96703 17.6509 9.39992 -180.291 -3.80384 178.606
lowerback 11.629 1.29564 1.96621
upperback 1.05398 1.90396 1.13414
thorax -5.38993 0.845468 -0.220466
lowerneck -15.3863 -0.823572 -13.0792
upperneck 37.8333 -3.41671 6.22474
head 16.4802 -3.74751 4.09118
rclavicle 2.37548e-014 2.70347e-014
rhumerus -35.3116 -19.6647 -71.4253
rradius 31.9155
rwrist 8.30693
rhand -15.1364 8.98038
rfingers 7.12502
rthumb 11.0332 -20.7096
lclavicle 2.37548e-014 2.70347e-014
lhumerus -32.2375 9.86618 82.8006
lradius 33.8268
lwrist -5.18917
lhand -22.3991 25.5869
lfingers 7.12502
lthumb 4.02341 55.5286
rfemur -8.93681 -3.82142 20.2725
rtibia 36.3553
rfoot -23.7318 5.29006
rtoes 3.37571
lfemur -8.90166 0.0299116 -22.9877
ltibia 32.2901
lfoot -23.444 -2.8281
ltoes -17.4278
376
root 3.91553 17.6636 9.41595 -180.219 -3.56935 178.679
lowerback 11.6098 1.30224 2.06482
upperback 1.00622 1.9317 1.24154
thorax -5.42961 0.857106 -0.168034
lowerneck -15.4904 -0.829228 -13.0526
upperneck 37.9105 -3.41517 6.16474
head 16.5451 -3.75847 4.06027
rclavicle -1.20265e-014 1.27222e-014
rhumerus -35.11 -19.6317 -71.1063
rradius 31.7713
rwrist 8.42915
rhand -15.0957 8.96605
rfingers 7.12502
rthumb 11.0725 -20.7219
lclavicle -1.20265e-014 1.27222e-014
lhumerus -32.4791 10.0933 82.9761
lradius 34.1042
lwrist -5.38672
lhand -21.4408 26.9271
lfingers 7.12502
lthumb 4.94873 56.8493
rfemur -8.95198 -3.65186 20.1922
rtibia 36.0434
rfoot -23.6821 5.15445
rtoes 3.11724
lfemur -9.18861 -0.110294 -22.846
ltibia 32.6575
lfoot -23.7862 -3.47069
ltoes -17.9366
377
root 3.86576 17.6754 9.43211 -180.216 -3.35482 178.702
lowerback 11.7198 1.33246 2.10911
upperback 0.956517 1.98602 1.32995
thorax -5.54422 0.881531 -0.112187
lowerneck -15.5291 -0.871358 -13.1706
upperneck 37.9491 -3.48906 6.25335
head 16.5908 -3.80057 4.10808
rclavicle 2.44505e-014 1.82882e-014
rhumerus -34.9412 -19.4323 -70.8269
rradius 31.6202
rwrist 8.2356
rhand -15.2218 9.18714
rfingers 7.12502
rthumb 10.9508 -20.5073
lclavicle 2.44505e-014 1.82882e-014
lhumerus -32.7269 10.0444 83.236
lradius 34.135
lwrist -4.70654
lhand -22.0303 26.0376
lfingers 7.12502
lthumb 4.37947 55.9723
rfemur -8.88217 -3.52479 20.0706
rtibia 35.7077
rfoot -23.6563 4.977
rtoes 2.34335
lfemur -9.409 -0.240361 -22.7217
ltibia 33.0327
lfoot -24.1383 -4.28363
ltoes -17.5783
378
root 3.81917 17.6844 9.44896 -180.255 -3.26051 178.749
lowerback 11.9013 1.30672 2.10829
upperback 0.894312 1.96344 1.43899
thorax -5.71557 0.868484 0.00137413
lowerneck -15.4297 -0.875873 -13.2093
upperneck 37.8826 -3.51925 6.29631
head 16.5367 -3.81358 4.12624
rclavicle 1.87852e-014 6.36111e-015
rhumerus -34.7933 -19.402 -70.5268
rradius 31.502
rwrist 8.28794
rhand -15.2994 9.11256
rfingers 7.12502
rthumb 10.876 -20.5858
lclavicle 1.87852e-014 6.36111e-015
lhumerus -32.8913 10.1346 83.4292
lradius 34.0769
lwrist -4.58078
lhand -22.1067 26.2223
lfingers 7.12502
lthumb 4.30577 56.1585
rfemur -8.73407 -3.3704 20.0117
rtibia 35.373
rfoot -23.5966 4.61785
rtoes 1.462
lfemur -9.6119 -0.231917 -22.4894
ltibia 33.4091
lfoot -24.3278 -5.69036
ltoes -16.1654
379
root 3.77263 17.6875 9.4659 -180.326 -3.17228 178.821
lowerback 12.048 1.26399 2.14041
upperback 0.896357 1.91609 1.55476
thorax -5.79898 0.841981 0.109647
lowerneck -15.4513 -0.861372 -13.1262
upperneck 37.8595 -3.48536 6.21316
head 16.5212 -3.79704 4.07883
rclavicle 7.05686e-015 1.19271e-014
rhumerus -34.5738 -19.4685 -70.2594
rradius 31.4949
rwrist 8.31354
rhand -15.2085 8.62351
rfingers 7.12502
rthumb 10.9636 -21.0702
lclavicle 7.05686e-015 1.19271e-014
lhumerus -32.9549 10.4335 83.5649
lradius 33.8958
lwrist -4.73595
lhand -22.6947 25.6678
lfingers 7.12502
lthumb 3.73796 55.6147
rfemur -8.51991 -3.06224 19.9865
rtibia 35.0412
rfoot -23.5933 4.15575
rtoes 0.231615
lfemur -9.77125 -0.169321 -22.1907
ltibia 33.7863
lfoot -24.3605 -6.83868
ltoes -14.5835
380
root 3.72509 17.6906 9.4833 -180.379 -3.12768 178.89
lowerback 12.1381 1.21635 2.2126
upperback 0.948251 1.86084 1.64549
thorax -5.79582 0.81055 0.172482
lowerneck -15.6615 -0.895787 -13.0384
upperneck 37.8858 -3.49103 6.13844
head 16.5856 -3.78987 4.02993
rclavicle 7.55382e-015 4.77083e-015
rhumerus -34.2759 -19.6792 -70.0214
rradius 31.4605
rwrist 8.34271
rhand -15.2819 8.10694
rfingers 7.12502
rthumb 10.8929 -21.5905
lclavicle 7.55382e-015 4.77083e-015
lhumerus -32.9812 10.4645 83.7816
lradius 33.8026
lwrist -4.65912
lhand -23.3932 25.2345
lfingers 7.12502
lthumb 3.06342 55.1923
rfemur -8.32253 -2.93119 19.9116
rtibia 34.7033
rfoot -23.5497 3.93109
rtoes -0.542064
lfemur -9.93422 -0.299261 -21.8671
ltibia 34.1414
lfoot -24.3019 -7.37577
ltoes -13.0401
381
root 3.67289 17.6995 9.49751 -180.424 -3.02421 178.913
lowerback 12.1903 1.16483 2.26258
upperback 0.982163 1.79778 1.71551
thorax -5.79051 0.776581 0.228008
lowerneck -15.6813 -0.921861 -13.059
upperneck 37.7805 -3.50293 6.1616
head 16.5381 -3.78307 4.04024
rclavicle 1.68967e-014 7.95139e-015
rhumerus -34.0931 -19.9331 -69.7676
rradius 31.5029
rwrist 8.41572
rhand -15.4451 7.84111
rfingers 7.12502
rthumb 10.7354 -21.8646
lclavicle 1.68967e-014 7.95139e-015
lhumerus -33.1867 10.2783 84.0456
lradius 33.9833
lwrist -4.38836
lhand -23.1219 24.7295
lfingers 7.12502
lthumb 3.32537 54.6834
rfemur -8.15554 -2.83581 19.7379
rtibia 34.3544
rfoot -23.4207 3.93596
rtoes -1.02471
lfemur -10.0607 -0.501641 -21.5785
ltibia 34.458
lfoot -24.0632 -7.52897
ltoes -11.1498
382
root 3.61932 17.7144 9.50901 -180.494 -2.95298 178.911
lowerback 12.2657 1.10338 2.31592
upperback 0.991684 1.72373 1.73847
thorax -5.8224 0.737368 0.23344
lowerneck -15.5473 -0.925664 -13.0801
upperneck 37.6535 -3.55833 6.2745
head 16.4476 -3.78911 4.08156
rclavicle -2.51463e-014 -7.15625e-015
rhumerus -33.921 -20.0863 -69.622
rradius 31.4817
rwrist 8.1109
rhand -15.8066 7.88942
rfingers 7.12502
rthumb 10.3867 -21.834
lclavicle -2.51463e-014 -7.15625e-015
lhumerus -33.4294 9.99498 84.2529
lradius 34.1775
lwrist -4.17734
lhand -21.9282 22.0421
lfingers 7.12502
lthumb 4.47806 51.9747
rfemur -7.91281 -2.73317 19.5261
rtibia 33.9751
rfoot -23.2911 3.89389
rtoes -1.30798
lfemur -10.1287 -0.655098 -21.2841
ltibia 34.7383
lfoot -23.9277 -7.00432
ltoes -10.7092
383
root 3.56516 17.7285 9.52232 -180.588 -2.86668 178.932
lowerback 12.3867 1.05317 2.3884
upperback 1.0245 1.66602 1.76927
thorax -5.85456 0.704656 0.233211
lowerneck -15.5366 -0.905316 -12.9791
upperneck 37.5785 -3.54718 6.27727
head 16.4007 -3.76286 4.06534
rclavicle -6.4605e-015 -4.77083e-015
rhumerus -33.6513 -20.3566 -69.4748
rradius 31.3957
rwrist 7.78337
rhand -16.288 7.88093
rfingers 7.12502
rthumb 9.92235 -21.8652
lclavicle -6.4605e-015 -4.77083e-015
lhumerus -33.4934 9.82441 84.4098
lradius 34.1455
lwrist -4.20643
lhand -22.2206 21.8146
lfingers 7.12502
lthumb 4.19571 51.7531
rfemur -7.64003 -2.63361 19.3316
rtibia 33.5825
rfoot -23.1173 3.88938
rtoes -1.68266
lfemur -10.1605 -0.828746 -20.9249
ltibia 34.9655
lfoot -23.957 -5.84131
ltoes -11.6927
384
root 3.5101 17.7401 9.53608 -180.69 -2.74029 179.027
lowerback 12.5027 1.01232 2.52068
upperback 1.08215 1.62652 1.83262
thorax -5.85676 0.678593 0.230979
lowerneck -15.6622 -0.885032 -12.8148
upperneck 37.5466 -3.47809 6.1577
head 16.399 -3.71659 3.99501
rclavicle 1.59028e-015 2.38542e-014
rhumerus -33.4324 -20.7687 -69.242
rradius 31.4226
rwrist 7.65805
rhand -16.3725 7.92522
rfingers 7.12502
rthumb 9.84079 -21.8248
lclavicle 1.59028e-015 2.38542e-014
lhumerus -33.4655 9.72582 84.5519
lradius 34.0575
lwrist -4.32199
lhand -21.9513 22.0333
lfingers 7.12502
lthumb 4.45576 51.9664
rfemur -7.37101 -2.61537 19.1936
rtibia 33.1915
rfoot -23.0077 3.988
rtoes -2.07105
lfemur -10.1774 -0.992327 -20.4336
ltibia 35.1212
lfoot -23.7208 -4.82506
ltoes -11.8212
385
root 3.45543 17.752 9.55092 -180.727 -2.60369 179.011
lowerback 12.6085 0.98419 2.53753
upperback 1.07401 1.59503 1.86689
thorax -5.92527 0.660986 0.261417
lowerneck -15.6818 -0.885079 -12.8486
upperneck 37.5795 -3.49991 6.19735
head 16.4253 -3.73196 4.01451
rclavicle 1.19271e-014 1.27222e-014
rhumerus -33.3691 -20.9982 -69.0194
rradius 31.6119
rwrist 7.39839
rhand -16.4919 7.68748
rfingers 7.12502
rthumb 9.72555 -22.068
lclavicle 1.19271e-014 1.27222e-014
lhumerus -33.4642 9.68632 84.6834
lradius 33.9224
lwrist -4.43987
lhand -21.6824 21.9317
lfingers 7.12502
lthumb 4.71546 51.8592
rfemur -7.20168 -2.49453 18.953
rtibia 32.8357
rfoot -22.9071 4.01091
rtoes -2.72827
lfemur -10.2302 -1.17063 -20.0276
ltibia 35.1929
lfoot -23.1025 -3.91502
ltoes -11.8594
386
root 3.3987 17.7727 9.56375 -180.68 -2.45372 178.793
lowerback 12.6277 0.965117 2.37846
upperback 1.06494 1.54871 1.80937
thorax -5.94888 0.64304 0.298017
lowerneck -15.6796 -0.913452 -12.8085
upperneck 37.5783 -3.58576 6.2248
head 16.4354 -3.76199 4.00294
rclavicle -6.26172e-015 1.27222e-014
rhumerus -33.2437 -21.4652 -68.8438
rradius 31.7233
rwrist 7.34007
rhand -16.7335 7.33622
rfingers 7.12502
rthumb 9.49246 -22.43
lclavicle -6.26172e-015 1.27222e-014
lhumerus -33.4306 9.68298 84.7406
lradius 33.7705
lwrist -4.61034
lhand -21.8525 21.3282
lfingers 7.12502
lthumb 4.55118 51.2593
rfemur -7.15889 -2.38839 18.4885
rtibia 32.4979
rfoot -22.7333 4.08704
rtoes -3.14168
lfemur -10.3127 -1.42373 -19.8314
ltibia 35.1915
lfoot -22.453 -2.73794
ltoes -12.2826
387
root 3.33803 17.7911 9.57331 -180.652 -2.27369 178.616
lowerback 12.5731 0.971207 2.27431
upperback 1.12628 1.53438 1.76103
thorax -5.85506 0.638911 0.309437
lowerneck -15.781 -0.957682 -12.7505
upperneck 37.5569 -3.65598 6.245
head 16.4584 -3.7736 3.98909
rclavicle -5.46658e-015 2.78299e-014
rhumerus -33.0262 -21.8803 -68.7261
rradius 31.8585
rwrist 7.08745
rhand -16.9002 7.159
rfingers 7.12502
rthumb 9.33166 -22.6145
lclavicle -5.46658e-015 2.78299e-014
lhumerus -33.3736 9.48027 84.8917
lradius 33.7655
lwrist -4.56515
lhand -22.0096 21.5949
lfingers 7.12502
lthumb 4.39953 51.5292
rfemur -7.0964 -2.45109 18.0149
rtibia 32.1912
rfoot -22.5571 4.48807
rtoes -2.94519
lfemur -10.3068 -1.81103 -19.5867
ltibia 35.1136
lfoot -21.9615 -1.42284
ltoes -12.3342
